<?xml version="1.0"?>
<svg xmlns="http://www.w3.org/2000/svg" xmlns:xlink="http://www.w3.org/1999/xlink" xmlns:svgjs="http://svgjs.com/svgjs" version="1.1" width="512" height="512" x="0" y="0" viewBox="0 0 128 128" style="enable-background:new 0 0 512 512" xml:space="preserve" class=""><g transform="matrix(0.88,0,0,0.88,7.689190810918809,7.692067134976384)"><g xmlns="http://www.w3.org/2000/svg"><g><path d="M83.868,83.2V65.821a5.3,5.3,0,0,1,5.815-5.27,5.449,5.449,0,0,1,4.775,5.5v.668A48.041,48.041,0,1,0,83.868,83.2Z" fill="#6176d4" data-original="#4d5680" style="" class=""/><path d="M83.868,70.288V65.821a5.294,5.294,0,0,1,4.188-5.175,39.746,39.746,0,1,0-4.188,9.642Z" fill="#f3f5f9" data-original="#f3f5f9" style=""/><path d="M49.688,52.813h0A9.114,9.114,0,0,1,40.574,43.7V40.108a9.113,9.113,0,0,1,9.114-9.114h0A9.113,9.113,0,0,1,58.8,40.108V43.7A9.114,9.114,0,0,1,49.688,52.813Z" fill="#ffd9b3" data-original="#ffd9b3" style=""/><path d="M72.74,77.089v5.159a39.882,39.882,0,0,1-46.1,0V77.089a14.987,14.987,0,0,1,15-14.994H57.745A14.987,14.987,0,0,1,72.74,77.089Z" fill="#ffd830" data-original="#ffd830" style=""/><path d="M121.453,95.657a5.3,5.3,0,0,0-5.815,5.27v-6.27a5.45,5.45,0,0,0-4.775-5.5,5.3,5.3,0,0,0-5.815,5.271V87.285a5.449,5.449,0,0,0-4.775-5.5,5.3,5.3,0,0,0-5.815,5.27V66.049a5.449,5.449,0,0,0-4.775-5.5,5.3,5.3,0,0,0-5.815,5.27V111.4L71.316,98.85a5.449,5.449,0,0,0-7.264-.511,5.3,5.3,0,0,0-.385,7.838L81.1,123.615a9,9,0,0,0,6.362,2.635h29.765a9,9,0,0,0,9-9v-16.1A5.449,5.449,0,0,0,121.453,95.657Z" fill="#ffd9b3" data-original="#ffd9b3" style=""/></g><g><path d="M49.688,54.563A10.876,10.876,0,0,0,60.553,43.7V40.108a10.865,10.865,0,0,0-21.729,0V43.7A10.876,10.876,0,0,0,49.688,54.563ZM42.324,40.108a7.365,7.365,0,0,1,14.729,0V43.7a7.365,7.365,0,0,1-14.729,0Z" fill="#000000" data-original="#000000" style=""/><path d="M121.619,93.915a7.089,7.089,0,0,0-4.231.925v-.183a7.224,7.224,0,0,0-6.359-7.24,7.084,7.084,0,0,0-4.231.926V87.285a7.224,7.224,0,0,0-6.359-7.24,7.082,7.082,0,0,0-4.231.925V67.018A49.566,49.566,0,1,0,62.16,97.752a7.024,7.024,0,0,0,.27,9.663l17.437,17.437a10.675,10.675,0,0,0,7.6,3.148h29.765a10.758,10.758,0,0,0,10.746-10.747v-16.1A7.223,7.223,0,0,0,121.619,93.915ZM3.522,49.666A46.166,46.166,0,1,1,94.381,61.18a6.933,6.933,0,0,0-4.081-2.3A41.651,41.651,0,0,0,20.227,20.2,1.75,1.75,0,1,0,22.7,22.674,38.123,38.123,0,0,1,86.6,59.272a7,7,0,0,0-4.478,6.549v3.956a38,38,0,0,1-7.628,8.882v-1.57A16.763,16.763,0,0,0,57.745,60.345H41.631A16.763,16.763,0,0,0,24.886,77.089v1.555A38.22,38.22,0,0,1,11.522,49.669a1.75,1.75,0,0,0-3.5,0,41.738,41.738,0,0,0,17.6,34.005,41.628,41.628,0,0,0,56.5-7.866v6.655a46.122,46.122,0,0,1-78.6-32.8Zm67.556,31.6a38.1,38.1,0,0,1-42.723.038,1.729,1.729,0,0,0,.031-.308V77.089A13.26,13.26,0,0,1,41.631,63.845H57.745A13.259,13.259,0,0,1,70.99,77.089v3.655A1.729,1.729,0,0,0,71.078,81.264Zm53.4,35.989a7.254,7.254,0,0,1-7.246,7.247H87.466a7.2,7.2,0,0,1-5.124-2.123L64.9,104.94a3.558,3.558,0,0,1-1.034-2.677,3.52,3.52,0,0,1,1.3-2.575,3.7,3.7,0,0,1,4.911.4l12.553,12.552a1.749,1.749,0,0,0,2.474-2.474L72.553,97.612a7.4,7.4,0,0,0-3.887-2.038,49.4,49.4,0,0,0,13.452-8.345V100a1.75,1.75,0,0,0,3.5,0V65.821a3.546,3.546,0,0,1,3.9-3.528,3.7,3.7,0,0,1,3.191,3.756V87.057a1.75,1.75,0,0,0,3.5,0,3.546,3.546,0,0,1,3.9-3.528,3.7,3.7,0,0,1,3.191,3.756V94.43a1.75,1.75,0,0,0,3.5,0,3.546,3.546,0,0,1,3.9-3.528,3.7,3.7,0,0,1,3.191,3.755v6.27a1.75,1.75,0,0,0,3.5,0,3.546,3.546,0,0,1,3.9-3.528,3.7,3.7,0,0,1,3.19,3.756Z" fill="#000000" data-original="#000000" style=""/><path d="M11.1,39.256a1.749,1.749,0,0,0,2.2-1.139,38.091,38.091,0,0,1,1.589-4.149,1.75,1.75,0,0,0-3.19-1.441,41.639,41.639,0,0,0-1.735,4.532A1.75,1.75,0,0,0,11.1,39.256Z" fill="#000000" data-original="#000000" style=""/></g></g></g></svg>
